<svg xmlns="http://www.w3.org/2000/svg" viewBox="0 0 640 380" font-family="-apple-system,Segoe UI,Roboto,sans-serif" font-size="12"><text x="320.0" y="22" text-anchor="middle" font-weight="600" font-size="14">Tokens per passing case</text><style>.grid{stroke:#eee;stroke-width:1}.ax{stroke:#888;stroke-width:1}.lbl{fill:#222}</style><line x1="70" y1="60.0" x2="630" y2="60.0" class="grid"/><text x="64" y="64.0" text-anchor="end" fill="#666">5151 tok</text><line x1="70" y1="117.5" x2="630" y2="117.5" class="grid"/><text x="64" y="121.5" text-anchor="end" fill="#666">3863 tok</text><line x1="70" y1="175.0" x2="630" y2="175.0" class="grid"/><text x="64" y="179.0" text-anchor="end" fill="#666">2576 tok</text><line x1="70" y1="232.5" x2="630" y2="232.5" class="grid"/><text x="64" y="236.5" text-anchor="end" fill="#666">1288 tok</text><line x1="70" y1="290.0" x2="630" y2="290.0" class="grid"/><text x="64" y="294.0" text-anchor="end" fill="#666">0 tok</text><line x1="70" y1="290" x2="630" y2="290" class="ax"/><line x1="70" y1="60" x2="70" y2="290" class="ax"/><rect x="90" y="80.9090909090909" width="16" height="209.0909090909091" fill="#9ca3af"/><text x="98.0" y="77.9090909090909" text-anchor="middle" fill="#444" font-size="9">4683</text><rect x="108" y="254.28086114184768" width="16" height="35.71913885815231" fill="#60a5fa"/><text x="116.0" y="251.28086114184768" text-anchor="middle" fill="#444" font-size="9">800</text><rect x="126" y="150.0256245996156" width="16" height="139.9743754003844" fill="#fbbf24"/><text x="134.0" y="147.0256245996156" text-anchor="middle" fill="#444" font-size="9">3135</text><rect x="144" y="244.5473958030012" width="16" height="45.45260419699881" fill="#10b981"/><text x="152.0" y="241.5473958030012" text-anchor="middle" fill="#444" font-size="9">1018</text><text x="125.0" y="304" transform="rotate(-25 125.0 304)" text-anchor="end" class="lbl">overall</text><rect x="70" y="32" width="14" height="10" fill="#9ca3af"/><text x="88" y="41">Q1 — no agent, no simplicio</text><rect x="220" y="32" width="14" height="10" fill="#60a5fa"/><text x="238" y="41">Q2 — no agent, with simplicio</text><rect x="370" y="32" width="14" height="10" fill="#fbbf24"/><text x="388" y="41">Q3 — with agent, no simplicio</text><rect x="520" y="32" width="14" height="10" fill="#10b981"/><text x="538" y="41">Q4 — with agent, with simplicio</text></svg>