<svg xmlns="http://www.w3.org/2000/svg" viewBox="0 0 640 380" font-family="-apple-system,Segoe UI,Roboto,sans-serif" font-size="12"><text x="320.0" y="22" text-anchor="middle" font-weight="600" font-size="14">Pass rate per quadrant (aggregate)</text><style>.grid{stroke:#eee;stroke-width:1}.ax{stroke:#888;stroke-width:1}.lbl{fill:#222}</style><line x1="70" y1="60.0" x2="630" y2="60.0" class="grid"/><text x="64" y="64.0" text-anchor="end" fill="#666">100%</text><line x1="70" y1="117.5" x2="630" y2="117.5" class="grid"/><text x="64" y="121.5" text-anchor="end" fill="#666">75%</text><line x1="70" y1="175.0" x2="630" y2="175.0" class="grid"/><text x="64" y="179.0" text-anchor="end" fill="#666">50%</text><line x1="70" y1="232.5" x2="630" y2="232.5" class="grid"/><text x="64" y="236.5" text-anchor="end" fill="#666">25%</text><line x1="70" y1="290.0" x2="630" y2="290.0" class="grid"/><text x="64" y="294.0" text-anchor="end" fill="#666">0%</text><line x1="70" y1="290" x2="630" y2="290" class="ax"/><line x1="70" y1="60" x2="70" y2="290" class="ax"/><rect x="90" y="290.0" width="16" height="0.0" fill="#9ca3af"/><text x="98.0" y="287.0" text-anchor="middle" fill="#444" font-size="9">0</text><rect x="108" y="122.1" width="16" height="167.9" fill="#60a5fa"/><text x="116.0" y="119.1" text-anchor="middle" fill="#444" font-size="9">73</text><rect x="126" y="184.2" width="16" height="105.80000000000001" fill="#fbbf24"/><text x="134.0" y="181.2" text-anchor="middle" fill="#444" font-size="9">46</text><rect x="144" y="122.1" width="16" height="167.9" fill="#10b981"/><text x="152.0" y="119.1" text-anchor="middle" fill="#444" font-size="9">73</text><text x="125.0" y="304" transform="rotate(-25 125.0 304)" text-anchor="end" class="lbl">overall</text><rect x="70" y="32" width="14" height="10" fill="#9ca3af"/><text x="88" y="41">Q1 - no agent, no simplicio</text><rect x="220" y="32" width="14" height="10" fill="#60a5fa"/><text x="238" y="41">Q2 - no agent, with simplicio</text><rect x="370" y="32" width="14" height="10" fill="#fbbf24"/><text x="388" y="41">Q3 - with agent, no simplicio</text><rect x="520" y="32" width="14" height="10" fill="#10b981"/><text x="538" y="41">Q4 - with agent, with simplicio</text></svg>