<svg xmlns="http://www.w3.org/2000/svg" viewBox="0 0 640 380" font-family="-apple-system,Segoe UI,Roboto,sans-serif" font-size="12"><text x="320.0" y="22" text-anchor="middle" font-weight="600" font-size="14">Pass rate per case per quadrant</text><style>.grid{stroke:#eee;stroke-width:1}.ax{stroke:#888;stroke-width:1}.lbl{fill:#222}</style><line x1="70" y1="60.0" x2="630" y2="60.0" class="grid"/><text x="64" y="64.0" text-anchor="end" fill="#666">100%</text><line x1="70" y1="117.5" x2="630" y2="117.5" class="grid"/><text x="64" y="121.5" text-anchor="end" fill="#666">75%</text><line x1="70" y1="175.0" x2="630" y2="175.0" class="grid"/><text x="64" y="179.0" text-anchor="end" fill="#666">50%</text><line x1="70" y1="232.5" x2="630" y2="232.5" class="grid"/><text x="64" y="236.5" text-anchor="end" fill="#666">25%</text><line x1="70" y1="290.0" x2="630" y2="290.0" class="grid"/><text x="64" y="294.0" text-anchor="end" fill="#666">0%</text><line x1="70" y1="290" x2="630" y2="290" class="ax"/><line x1="70" y1="60" x2="70" y2="290" class="ax"/><rect x="90" y="290.0" width="16" height="0.0" fill="#9ca3af"/><text x="98.0" y="287.0" text-anchor="middle" fill="#444" font-size="9">0</text><rect x="108" y="136.66666666666666" width="16" height="153.33333333333334" fill="#60a5fa"/><text x="116.0" y="133.66666666666666" text-anchor="middle" fill="#444" font-size="9">67</text><rect x="126" y="136.66666666666666" width="16" height="153.33333333333334" fill="#fbbf24"/><text x="134.0" y="133.66666666666666" text-anchor="middle" fill="#444" font-size="9">67</text><rect x="144" y="136.66666666666666" width="16" height="153.33333333333334" fill="#10b981"/><text x="152.0" y="133.66666666666666" text-anchor="middle" fill="#444" font-size="9">67</text><text x="125.0" y="304" transform="rotate(-25 125.0 304)" text-anchor="end" class="lbl">#1</text><rect x="172" y="290.0" width="16" height="0.0" fill="#9ca3af"/><text x="180.0" y="287.0" text-anchor="middle" fill="#444" font-size="9">0</text><rect x="190" y="136.66666666666666" width="16" height="153.33333333333334" fill="#60a5fa"/><text x="198.0" y="133.66666666666666" text-anchor="middle" fill="#444" font-size="9">67</text><rect x="208" y="136.66666666666666" width="16" height="153.33333333333334" fill="#fbbf24"/><text x="216.0" y="133.66666666666666" text-anchor="middle" fill="#444" font-size="9">67</text><rect x="226" y="60.0" width="16" height="230.0" fill="#10b981"/><text x="234.0" y="57.0" text-anchor="middle" fill="#444" font-size="9">100</text><text x="207.0" y="304" transform="rotate(-25 207.0 304)" text-anchor="end" class="lbl">#2</text><rect x="254" y="290.0" width="16" height="0.0" fill="#9ca3af"/><text x="262.0" y="287.0" text-anchor="middle" fill="#444" font-size="9">0</text><rect x="272" y="136.66666666666666" width="16" height="153.33333333333334" fill="#60a5fa"/><text x="280.0" y="133.66666666666666" text-anchor="middle" fill="#444" font-size="9">67</text><rect x="290" y="213.33333333333331" width="16" height="76.66666666666667" fill="#fbbf24"/><text x="298.0" y="210.33333333333331" text-anchor="middle" fill="#444" font-size="9">33</text><rect x="308" y="136.66666666666666" width="16" height="153.33333333333334" fill="#10b981"/><text x="316.0" y="133.66666666666666" text-anchor="middle" fill="#444" font-size="9">67</text><text x="289.0" y="304" transform="rotate(-25 289.0 304)" text-anchor="end" class="lbl">#3</text><rect x="336" y="290.0" width="16" height="0.0" fill="#9ca3af"/><text x="344.0" y="287.0" text-anchor="middle" fill="#444" font-size="9">0</text><rect x="354" y="60.0" width="16" height="230.0" fill="#60a5fa"/><text x="362.0" y="57.0" text-anchor="middle" fill="#444" font-size="9">100</text><rect x="372" y="213.33333333333331" width="16" height="76.66666666666667" fill="#fbbf24"/><text x="380.0" y="210.33333333333331" text-anchor="middle" fill="#444" font-size="9">33</text><rect x="390" y="136.66666666666666" width="16" height="153.33333333333334" fill="#10b981"/><text x="398.0" y="133.66666666666666" text-anchor="middle" fill="#444" font-size="9">67</text><text x="371.0" y="304" transform="rotate(-25 371.0 304)" text-anchor="end" class="lbl">#4</text><rect x="418" y="290.0" width="16" height="0.0" fill="#9ca3af"/><text x="426.0" y="287.0" text-anchor="middle" fill="#444" font-size="9">0</text><rect x="436" y="136.66666666666666" width="16" height="153.33333333333334" fill="#60a5fa"/><text x="444.0" y="133.66666666666666" text-anchor="middle" fill="#444" font-size="9">67</text><rect x="454" y="213.33333333333331" width="16" height="76.66666666666667" fill="#fbbf24"/><text x="462.0" y="210.33333333333331" text-anchor="middle" fill="#444" font-size="9">33</text><rect x="472" y="136.66666666666666" width="16" height="153.33333333333334" fill="#10b981"/><text x="480.0" y="133.66666666666666" text-anchor="middle" fill="#444" font-size="9">67</text><text x="453.0" y="304" transform="rotate(-25 453.0 304)" text-anchor="end" class="lbl">#5</text><rect x="70" y="32" width="14" height="10" fill="#9ca3af"/><text x="88" y="41">Q1 - no agent, no simplicio</text><rect x="220" y="32" width="14" height="10" fill="#60a5fa"/><text x="238" y="41">Q2 - no agent, with simplicio</text><rect x="370" y="32" width="14" height="10" fill="#fbbf24"/><text x="388" y="41">Q3 - with agent, no simplicio</text><rect x="520" y="32" width="14" height="10" fill="#10b981"/><text x="538" y="41">Q4 - with agent, with simplicio</text></svg>