<svg xmlns="http://www.w3.org/2000/svg" viewBox="0 0 730 296" font-family="Inter,Helvetica,sans-serif" font-size="11">
<text x="365.0" y="22" text-anchor="middle" font-size="14" font-weight="600">Wide run - per case x quadrant (avg across models)</text>
<text x="282.0" y="50" text-anchor="middle" font-weight="600">#1</text>
<text x="282.0" y="66" text-anchor="middle" fill="#6b7280">angular</text>
<text x="326.0" y="50" text-anchor="middle" font-weight="600">#2</text>
<text x="326.0" y="66" text-anchor="middle" fill="#6b7280">angular</text>
<text x="370.0" y="50" text-anchor="middle" font-weight="600">#3</text>
<text x="370.0" y="66" text-anchor="middle" fill="#6b7280">angular</text>
<text x="414.0" y="50" text-anchor="middle" font-weight="600">#4</text>
<text x="414.0" y="66" text-anchor="middle" fill="#6b7280">angular</text>
<text x="458.0" y="50" text-anchor="middle" font-weight="600">#5</text>
<text x="458.0" y="66" text-anchor="middle" fill="#6b7280">react</text>
<text x="502.0" y="50" text-anchor="middle" font-weight="600">#6</text>
<text x="502.0" y="66" text-anchor="middle" fill="#6b7280">react</text>
<text x="546.0" y="50" text-anchor="middle" font-weight="600">#7</text>
<text x="546.0" y="66" text-anchor="middle" fill="#6b7280">react</text>
<text x="590.0" y="50" text-anchor="middle" font-weight="600">#8</text>
<text x="590.0" y="66" text-anchor="middle" fill="#6b7280">dotnet</text>
<text x="634.0" y="50" text-anchor="middle" font-weight="600">#9</text>
<text x="634.0" y="66" text-anchor="middle" fill="#6b7280">dotnet</text>
<text x="678.0" y="50" text-anchor="middle" font-weight="600">#10</text>
<text x="678.0" y="66" text-anchor="middle" fill="#6b7280">angular</text>
<text x="248" y="106.0" text-anchor="end" font-weight="600">Q1 raw 1-shot</text>
<rect x="260" y="80" width="44" height="44" fill="#fca5a5" stroke="#fff" stroke-width="1" />
<text x="282.0" y="106.0" text-anchor="middle" fill="#111827">0/3</text>
<rect x="304" y="80" width="44" height="44" fill="#fca5a5" stroke="#fff" stroke-width="1" />
<text x="326.0" y="106.0" text-anchor="middle" fill="#111827">0/3</text>
<rect x="348" y="80" width="44" height="44" fill="#fca5a5" stroke="#fff" stroke-width="1" />
<text x="370.0" y="106.0" text-anchor="middle" fill="#111827">0/3</text>
<rect x="392" y="80" width="44" height="44" fill="#fca5a5" stroke="#fff" stroke-width="1" />
<text x="414.0" y="106.0" text-anchor="middle" fill="#111827">0/3</text>
<rect x="436" y="80" width="44" height="44" fill="#fca5a5" stroke="#fff" stroke-width="1" />
<text x="458.0" y="106.0" text-anchor="middle" fill="#111827">0/3</text>
<rect x="480" y="80" width="44" height="44" fill="#fca5a5" stroke="#fff" stroke-width="1" />
<text x="502.0" y="106.0" text-anchor="middle" fill="#111827">0/2</text>
<rect x="524" y="80" width="44" height="44" fill="#fca5a5" stroke="#fff" stroke-width="1" />
<text x="546.0" y="106.0" text-anchor="middle" fill="#111827">0/2</text>
<rect x="568" y="80" width="44" height="44" fill="#fca5a5" stroke="#fff" stroke-width="1" />
<text x="590.0" y="106.0" text-anchor="middle" fill="#111827">0/2</text>
<rect x="612" y="80" width="44" height="44" fill="#fca5a5" stroke="#fff" stroke-width="1" />
<text x="634.0" y="106.0" text-anchor="middle" fill="#111827">0/2</text>
<rect x="656" y="80" width="44" height="44" fill="#fca5a5" stroke="#fff" stroke-width="1" />
<text x="678.0" y="106.0" text-anchor="middle" fill="#111827">0/2</text>
<text x="248" y="150.0" text-anchor="end" font-weight="600">Q2 simplicio 1-shot</text>
<rect x="260" y="124" width="44" height="44" fill="#fde68a" stroke="#fff" stroke-width="1" />
<text x="282.0" y="150.0" text-anchor="middle" fill="#111827">2/3</text>
<rect x="304" y="124" width="44" height="44" fill="#fde68a" stroke="#fff" stroke-width="1" />
<text x="326.0" y="150.0" text-anchor="middle" fill="#111827">2/3</text>
<rect x="348" y="124" width="44" height="44" fill="#fde68a" stroke="#fff" stroke-width="1" />
<text x="370.0" y="150.0" text-anchor="middle" fill="#111827">2/3</text>
<rect x="392" y="124" width="44" height="44" fill="#60a5fa" stroke="#fff" stroke-width="1" />
<text x="414.0" y="150.0" text-anchor="middle" fill="#111827">3/3</text>
<rect x="436" y="124" width="44" height="44" fill="#fde68a" stroke="#fff" stroke-width="1" />
<text x="458.0" y="150.0" text-anchor="middle" fill="#111827">1/3</text>
<rect x="480" y="124" width="44" height="44" fill="#60a5fa" stroke="#fff" stroke-width="1" />
<text x="502.0" y="150.0" text-anchor="middle" fill="#111827">2/2</text>
<rect x="524" y="124" width="44" height="44" fill="#60a5fa" stroke="#fff" stroke-width="1" />
<text x="546.0" y="150.0" text-anchor="middle" fill="#111827">2/2</text>
<rect x="568" y="124" width="44" height="44" fill="#fde68a" stroke="#fff" stroke-width="1" />
<text x="590.0" y="150.0" text-anchor="middle" fill="#111827">1/2</text>
<rect x="612" y="124" width="44" height="44" fill="#fde68a" stroke="#fff" stroke-width="1" />
<text x="634.0" y="150.0" text-anchor="middle" fill="#111827">1/2</text>
<rect x="656" y="124" width="44" height="44" fill="#fca5a5" stroke="#fff" stroke-width="1" />
<text x="678.0" y="150.0" text-anchor="middle" fill="#111827">0/2</text>
<text x="248" y="194.0" text-anchor="end" font-weight="600">Q3 raw + loop</text>
<rect x="260" y="168" width="44" height="44" fill="#fde68a" stroke="#fff" stroke-width="1" />
<text x="282.0" y="194.0" text-anchor="middle" fill="#111827">1/3</text>
<rect x="304" y="168" width="44" height="44" fill="#fde68a" stroke="#fff" stroke-width="1" />
<text x="326.0" y="194.0" text-anchor="middle" fill="#111827">2/3</text>
<rect x="348" y="168" width="44" height="44" fill="#fde68a" stroke="#fff" stroke-width="1" />
<text x="370.0" y="194.0" text-anchor="middle" fill="#111827">2/3</text>
<rect x="392" y="168" width="44" height="44" fill="#fde68a" stroke="#fff" stroke-width="1" />
<text x="414.0" y="194.0" text-anchor="middle" fill="#111827">2/3</text>
<rect x="436" y="168" width="44" height="44" fill="#fde68a" stroke="#fff" stroke-width="1" />
<text x="458.0" y="194.0" text-anchor="middle" fill="#111827">2/3</text>
<rect x="480" y="168" width="44" height="44" fill="#fca5a5" stroke="#fff" stroke-width="1" />
<text x="502.0" y="194.0" text-anchor="middle" fill="#111827">0/2</text>
<rect x="524" y="168" width="44" height="44" fill="#fde68a" stroke="#fff" stroke-width="1" />
<text x="546.0" y="194.0" text-anchor="middle" fill="#111827">1/2</text>
<rect x="568" y="168" width="44" height="44" fill="#fca5a5" stroke="#fff" stroke-width="1" />
<text x="590.0" y="194.0" text-anchor="middle" fill="#111827">0/2</text>
<rect x="612" y="168" width="44" height="44" fill="#fde68a" stroke="#fff" stroke-width="1" />
<text x="634.0" y="194.0" text-anchor="middle" fill="#111827">1/2</text>
<rect x="656" y="168" width="44" height="44" fill="#fca5a5" stroke="#fff" stroke-width="1" />
<text x="678.0" y="194.0" text-anchor="middle" fill="#111827">0/2</text>
<text x="248" y="238.0" text-anchor="end" font-weight="600">Q4 simplicio + loop</text>
<rect x="260" y="212" width="44" height="44" fill="#fde68a" stroke="#fff" stroke-width="1" />
<text x="282.0" y="238.0" text-anchor="middle" fill="#111827">2/3</text>
<rect x="304" y="212" width="44" height="44" fill="#10b981" stroke="#fff" stroke-width="1" />
<text x="326.0" y="238.0" text-anchor="middle" fill="#111827">3/3</text>
<rect x="348" y="212" width="44" height="44" fill="#fde68a" stroke="#fff" stroke-width="1" />
<text x="370.0" y="238.0" text-anchor="middle" fill="#111827">2/3</text>
<rect x="392" y="212" width="44" height="44" fill="#10b981" stroke="#fff" stroke-width="1" />
<text x="414.0" y="238.0" text-anchor="middle" fill="#111827">3/3</text>
<rect x="436" y="212" width="44" height="44" fill="#fde68a" stroke="#fff" stroke-width="1" />
<text x="458.0" y="238.0" text-anchor="middle" fill="#111827">2/3</text>
<rect x="480" y="212" width="44" height="44" fill="#10b981" stroke="#fff" stroke-width="1" />
<text x="502.0" y="238.0" text-anchor="middle" fill="#111827">2/2</text>
<rect x="524" y="212" width="44" height="44" fill="#10b981" stroke="#fff" stroke-width="1" />
<text x="546.0" y="238.0" text-anchor="middle" fill="#111827">2/2</text>
<rect x="568" y="212" width="44" height="44" fill="#10b981" stroke="#fff" stroke-width="1" />
<text x="590.0" y="238.0" text-anchor="middle" fill="#111827">2/2</text>
<rect x="612" y="212" width="44" height="44" fill="#fde68a" stroke="#fff" stroke-width="1" />
<text x="634.0" y="238.0" text-anchor="middle" fill="#111827">1/2</text>
<rect x="656" y="212" width="44" height="44" fill="#fca5a5" stroke="#fff" stroke-width="1" />
<text x="678.0" y="238.0" text-anchor="middle" fill="#111827">0/2</text>
</svg>