<svg xmlns="http://www.w3.org/2000/svg" viewBox="0 0 810 360" font-family="-apple-system,Segoe UI,Roboto,sans-serif" font-size="12"><style>.bar-sem{fill:#aaa}.bar-com{fill:#2962ff}.lbl{fill:#222}.ax{stroke:#888;stroke-width:1}.grid{stroke:#eee;stroke-width:1}</style><text x="405.0" y="22" text-anchor="middle" font-weight="600" font-size="14">Per-case pass rate (avg across models)</text><line x1="60" y1="50.0" x2="800" y2="50.0" class="grid"/><text x="54" y="54.0" text-anchor="end" fill="#666">100%</text><line x1="60" y1="105.0" x2="800" y2="105.0" class="grid"/><text x="54" y="109.0" text-anchor="end" fill="#666">75%</text><line x1="60" y1="160.0" x2="800" y2="160.0" class="grid"/><text x="54" y="164.0" text-anchor="end" fill="#666">50%</text><line x1="60" y1="215.0" x2="800" y2="215.0" class="grid"/><text x="54" y="219.0" text-anchor="end" fill="#666">25%</text><line x1="60" y1="270.0" x2="800" y2="270.0" class="grid"/><text x="54" y="274.0" text-anchor="end" fill="#666">0%</text><line x1="60" y1="270" x2="800" y2="270" class="ax"/><line x1="60" y1="50" x2="60" y2="270" class="ax"/><rect x="90" y="182.0" width="28" height="88.0" class="bar-sem"/><rect x="124" y="108.66666666666669" width="28" height="161.33333333333331" class="bar-com"/><text x="104.0" y="178.0" text-anchor="middle" fill="#444" font-size="10">40</text><text x="138.0" y="104.66666666666669" text-anchor="middle" fill="#2962ff" font-size="10">73</text><text x="121" y="284" transform="rotate(-25 121 284)" text-anchor="end" class="lbl">#1 angular</text><rect x="160" y="196.66666666666666" width="28" height="73.33333333333334" class="bar-sem"/><rect x="194" y="138.0" width="28" height="132.0" class="bar-com"/><text x="174.0" y="192.66666666666666" text-anchor="middle" fill="#444" font-size="10">33</text><text x="208.0" y="134.0" text-anchor="middle" fill="#2962ff" font-size="10">60</text><text x="191" y="284" transform="rotate(-25 191 284)" text-anchor="end" class="lbl">#2 angular</text><rect x="230" y="226.0" width="28" height="44.0" class="bar-sem"/><rect x="264" y="94.0" width="28" height="176.0" class="bar-com"/><text x="244.0" y="222.0" text-anchor="middle" fill="#444" font-size="10">20</text><text x="278.0" y="90.0" text-anchor="middle" fill="#2962ff" font-size="10">80</text><text x="261" y="284" transform="rotate(-25 261 284)" text-anchor="end" class="lbl">#3 angular</text><rect x="300" y="196.66666666666666" width="28" height="73.33333333333334" class="bar-sem"/><rect x="334" y="123.33333333333331" width="28" height="146.66666666666669" class="bar-com"/><text x="314.0" y="192.66666666666666" text-anchor="middle" fill="#444" font-size="10">33</text><text x="348.0" y="119.33333333333331" text-anchor="middle" fill="#2962ff" font-size="10">67</text><text x="331" y="284" transform="rotate(-25 331 284)" text-anchor="end" class="lbl">#4 angular</text><rect x="370" y="182.0" width="28" height="88.0" class="bar-sem"/><rect x="404" y="108.66666666666669" width="28" height="161.33333333333331" class="bar-com"/><text x="384.0" y="178.0" text-anchor="middle" fill="#444" font-size="10">40</text><text x="418.0" y="104.66666666666669" text-anchor="middle" fill="#2962ff" font-size="10">73</text><text x="401" y="284" transform="rotate(-25 401 284)" text-anchor="end" class="lbl">#5 react</text><rect x="440" y="147.77777777777774" width="28" height="122.22222222222226" class="bar-sem"/><rect x="474" y="111.11111111111114" width="28" height="158.88888888888886" class="bar-com"/><text x="454.0" y="143.77777777777774" text-anchor="middle" fill="#444" font-size="10">56</text><text x="488.0" y="107.11111111111114" text-anchor="middle" fill="#2962ff" font-size="10">72</text><text x="471" y="284" transform="rotate(-25 471 284)" text-anchor="end" class="lbl">#6 react</text><rect x="510" y="196.66666666666666" width="28" height="73.33333333333334" class="bar-sem"/><rect x="544" y="94.0" width="28" height="176.0" class="bar-com"/><text x="524.0" y="192.66666666666666" text-anchor="middle" fill="#444" font-size="10">33</text><text x="558.0" y="90.0" text-anchor="middle" fill="#2962ff" font-size="10">80</text><text x="541" y="284" transform="rotate(-25 541 284)" text-anchor="end" class="lbl">#7 react</text><rect x="580" y="182.0" width="28" height="88.0" class="bar-sem"/><rect x="614" y="108.66666666666669" width="28" height="161.33333333333331" class="bar-com"/><text x="594.0" y="178.0" text-anchor="middle" fill="#444" font-size="10">40</text><text x="628.0" y="104.66666666666669" text-anchor="middle" fill="#2962ff" font-size="10">73</text><text x="611" y="284" transform="rotate(-25 611 284)" text-anchor="end" class="lbl">#8 dotnet</text><rect x="650" y="211.33333333333334" width="28" height="58.666666666666664" class="bar-sem"/><rect x="684" y="152.66666666666669" width="28" height="117.33333333333333" class="bar-com"/><text x="664.0" y="207.33333333333334" text-anchor="middle" fill="#444" font-size="10">27</text><text x="698.0" y="148.66666666666669" text-anchor="middle" fill="#2962ff" font-size="10">53</text><text x="681" y="284" transform="rotate(-25 681 284)" text-anchor="end" class="lbl">#9 dotnet</text><rect x="720" y="182.0" width="28" height="88.0" class="bar-sem"/><rect x="754" y="152.66666666666669" width="28" height="117.33333333333333" class="bar-com"/><text x="734.0" y="178.0" text-anchor="middle" fill="#444" font-size="10">40</text><text x="768.0" y="148.66666666666669" text-anchor="middle" fill="#2962ff" font-size="10">53</text><text x="751" y="284" transform="rotate(-25 751 284)" text-anchor="end" class="lbl">#10 angular</text><rect x="590" y="32" width="14" height="10" class="bar-sem"/><text x="610" y="42">without simplicio</text><rect x="710" y="32" width="14" height="10" class="bar-com"/><text x="730" y="42">with simplicio</text></svg>