<svg xmlns="http://www.w3.org/2000/svg" viewBox="0 0 810 360" font-family="-apple-system,Segoe UI,Roboto,sans-serif" font-size="12"><style>.bar-sem{fill:#aaa}.bar-com{fill:#2962ff}.lbl{fill:#222}.ax{stroke:#888;stroke-width:1}.grid{stroke:#eee;stroke-width:1}</style><text x="405.0" y="22" text-anchor="middle" font-weight="600" font-size="14">Per-case pass rate (avg across models)</text><line x1="60" y1="50.0" x2="800" y2="50.0" class="grid"/><text x="54" y="54.0" text-anchor="end" fill="#666">100%</text><line x1="60" y1="105.0" x2="800" y2="105.0" class="grid"/><text x="54" y="109.0" text-anchor="end" fill="#666">75%</text><line x1="60" y1="160.0" x2="800" y2="160.0" class="grid"/><text x="54" y="164.0" text-anchor="end" fill="#666">50%</text><line x1="60" y1="215.0" x2="800" y2="215.0" class="grid"/><text x="54" y="219.0" text-anchor="end" fill="#666">25%</text><line x1="60" y1="270.0" x2="800" y2="270.0" class="grid"/><text x="54" y="274.0" text-anchor="end" fill="#666">0%</text><line x1="60" y1="270" x2="800" y2="270" class="ax"/><line x1="60" y1="50" x2="60" y2="270" class="ax"/><rect x="90" y="189.33333333333334" width="28" height="80.66666666666666" class="bar-sem"/><rect x="124" y="50.0" width="28" height="220.0" class="bar-com"/><text x="104.0" y="185.33333333333334" text-anchor="middle" fill="#444" font-size="10">37</text><text x="138.0" y="46.0" text-anchor="middle" fill="#2962ff" font-size="10">100</text><text x="121" y="284" transform="rotate(-25 121 284)" text-anchor="end" class="lbl">#1 angular</text><rect x="160" y="182.0" width="28" height="88.0" class="bar-sem"/><rect x="194" y="50.0" width="28" height="220.0" class="bar-com"/><text x="174.0" y="178.0" text-anchor="middle" fill="#444" font-size="10">40</text><text x="208.0" y="46.0" text-anchor="middle" fill="#2962ff" font-size="10">100</text><text x="191" y="284" transform="rotate(-25 191 284)" text-anchor="end" class="lbl">#2 angular</text><rect x="230" y="182.0" width="28" height="88.0" class="bar-sem"/><rect x="264" y="50.0" width="28" height="220.0" class="bar-com"/><text x="244.0" y="178.0" text-anchor="middle" fill="#444" font-size="10">40</text><text x="278.0" y="46.0" text-anchor="middle" fill="#2962ff" font-size="10">100</text><text x="261" y="284" transform="rotate(-25 261 284)" text-anchor="end" class="lbl">#3 angular</text><rect x="300" y="166.1111111111111" width="28" height="103.8888888888889" class="bar-sem"/><rect x="334" y="56.11111111111114" width="28" height="213.88888888888886" class="bar-com"/><text x="314.0" y="162.1111111111111" text-anchor="middle" fill="#444" font-size="10">47</text><text x="348.0" y="52.11111111111114" text-anchor="middle" fill="#2962ff" font-size="10">97</text><text x="331" y="284" transform="rotate(-25 331 284)" text-anchor="end" class="lbl">#4 angular</text><rect x="370" y="189.33333333333334" width="28" height="80.66666666666666" class="bar-sem"/><rect x="404" y="57.33333333333334" width="28" height="212.66666666666666" class="bar-com"/><text x="384.0" y="185.33333333333334" text-anchor="middle" fill="#444" font-size="10">37</text><text x="418.0" y="53.33333333333334" text-anchor="middle" fill="#2962ff" font-size="10">97</text><text x="401" y="284" transform="rotate(-25 401 284)" text-anchor="end" class="lbl">#5 react</text><rect x="440" y="160.0" width="28" height="110.0" class="bar-sem"/><rect x="474" y="50.0" width="28" height="220.0" class="bar-com"/><text x="454.0" y="156.0" text-anchor="middle" fill="#444" font-size="10">50</text><text x="488.0" y="46.0" text-anchor="middle" fill="#2962ff" font-size="10">100</text><text x="471" y="284" transform="rotate(-25 471 284)" text-anchor="end" class="lbl">#6 react</text><rect x="510" y="182.0" width="28" height="88.0" class="bar-sem"/><rect x="544" y="50.0" width="28" height="220.0" class="bar-com"/><text x="524.0" y="178.0" text-anchor="middle" fill="#444" font-size="10">40</text><text x="558.0" y="46.0" text-anchor="middle" fill="#2962ff" font-size="10">100</text><text x="541" y="284" transform="rotate(-25 541 284)" text-anchor="end" class="lbl">#7 react</text><rect x="580" y="167.33333333333334" width="28" height="102.66666666666666" class="bar-sem"/><rect x="614" y="50.0" width="28" height="220.0" class="bar-com"/><text x="594.0" y="163.33333333333334" text-anchor="middle" fill="#444" font-size="10">47</text><text x="628.0" y="46.0" text-anchor="middle" fill="#2962ff" font-size="10">100</text><text x="611" y="284" transform="rotate(-25 611 284)" text-anchor="end" class="lbl">#8 dotnet</text><rect x="650" y="189.33333333333334" width="28" height="80.66666666666666" class="bar-sem"/><rect x="684" y="50.0" width="28" height="220.0" class="bar-com"/><text x="664.0" y="185.33333333333334" text-anchor="middle" fill="#444" font-size="10">37</text><text x="698.0" y="46.0" text-anchor="middle" fill="#2962ff" font-size="10">100</text><text x="681" y="284" transform="rotate(-25 681 284)" text-anchor="end" class="lbl">#9 dotnet</text><rect x="720" y="174.66666666666666" width="28" height="95.33333333333334" class="bar-sem"/><rect x="754" y="57.33333333333334" width="28" height="212.66666666666666" class="bar-com"/><text x="734.0" y="170.66666666666666" text-anchor="middle" fill="#444" font-size="10">43</text><text x="768.0" y="53.33333333333334" text-anchor="middle" fill="#2962ff" font-size="10">97</text><text x="751" y="284" transform="rotate(-25 751 284)" text-anchor="end" class="lbl">#10 angular</text><rect x="590" y="32" width="14" height="10" class="bar-sem"/><text x="610" y="42">without simplicio</text><rect x="710" y="32" width="14" height="10" class="bar-com"/><text x="730" y="42">with simplicio</text></svg>