<svg xmlns="http://www.w3.org/2000/svg" viewBox="0 0 560 360" font-family="-apple-system,Segoe UI,Roboto,sans-serif" font-size="12"><style>.bar-sem{fill:#aaa}.bar-com{fill:#2962ff}.lbl{fill:#222}.ax{stroke:#888;stroke-width:1}.grid{stroke:#eee;stroke-width:1}</style><text x="280.0" y="22" text-anchor="middle" font-weight="600" font-size="14">Per-stack pass rate (all models, all cases)</text><line x1="60" y1="50.0" x2="550" y2="50.0" class="grid"/><text x="54" y="54.0" text-anchor="end" fill="#666">100%</text><line x1="60" y1="105.0" x2="550" y2="105.0" class="grid"/><text x="54" y="109.0" text-anchor="end" fill="#666">75%</text><line x1="60" y1="160.0" x2="550" y2="160.0" class="grid"/><text x="54" y="164.0" text-anchor="end" fill="#666">50%</text><line x1="60" y1="215.0" x2="550" y2="215.0" class="grid"/><text x="54" y="219.0" text-anchor="end" fill="#666">25%</text><line x1="60" y1="270.0" x2="550" y2="270.0" class="grid"/><text x="54" y="274.0" text-anchor="end" fill="#666">0%</text><line x1="60" y1="270" x2="550" y2="270" class="ax"/><line x1="60" y1="50" x2="60" y2="270" class="ax"/><rect x="90" y="178.33333333333334" width="28" height="91.66666666666666" class="bar-sem"/><rect x="124" y="52.820512820512846" width="28" height="217.17948717948715" class="bar-com"/><text x="104.0" y="174.33333333333334" text-anchor="middle" fill="#444" font-size="10">42</text><text x="138.0" y="48.820512820512846" text-anchor="middle" fill="#2962ff" font-size="10">99</text><text x="121" y="284" transform="rotate(-25 121 284)" text-anchor="end" class="lbl">angular</text><rect x="160" y="178.33333333333334" width="28" height="91.66666666666666" class="bar-sem"/><rect x="194" y="50.0" width="28" height="220.0" class="bar-com"/><text x="174.0" y="174.33333333333334" text-anchor="middle" fill="#444" font-size="10">42</text><text x="208.0" y="46.0" text-anchor="middle" fill="#2962ff" font-size="10">100</text><text x="191" y="284" transform="rotate(-25 191 284)" text-anchor="end" class="lbl">dotnet</text><rect x="230" y="176.04166666666666" width="28" height="93.95833333333334" class="bar-sem"/><rect x="264" y="52.291666666666686" width="28" height="217.70833333333331" class="bar-com"/><text x="244.0" y="172.04166666666666" text-anchor="middle" fill="#444" font-size="10">43</text><text x="278.0" y="48.291666666666686" text-anchor="middle" fill="#2962ff" font-size="10">99</text><text x="261" y="284" transform="rotate(-25 261 284)" text-anchor="end" class="lbl">react</text><rect x="340" y="32" width="14" height="10" class="bar-sem"/><text x="360" y="42">without simplicio</text><rect x="460" y="32" width="14" height="10" class="bar-com"/><text x="480" y="42">with simplicio</text></svg>