<svg xmlns="http://www.w3.org/2000/svg" viewBox="0 0 560 360" font-family="-apple-system,Segoe UI,Roboto,sans-serif" font-size="12"><style>.bar-sem{fill:#aaa}.bar-com{fill:#2962ff}.lbl{fill:#222}.ax{stroke:#888;stroke-width:1}.grid{stroke:#eee;stroke-width:1}</style><text x="280.0" y="22" text-anchor="middle" font-weight="600" font-size="14">Per-stack pass rate (all models, all cases)</text><line x1="60" y1="50.0" x2="550" y2="50.0" class="grid"/><text x="54" y="54.0" text-anchor="end" fill="#666">100%</text><line x1="60" y1="105.0" x2="550" y2="105.0" class="grid"/><text x="54" y="109.0" text-anchor="end" fill="#666">75%</text><line x1="60" y1="160.0" x2="550" y2="160.0" class="grid"/><text x="54" y="164.0" text-anchor="end" fill="#666">50%</text><line x1="60" y1="215.0" x2="550" y2="215.0" class="grid"/><text x="54" y="219.0" text-anchor="end" fill="#666">25%</text><line x1="60" y1="270.0" x2="550" y2="270.0" class="grid"/><text x="54" y="274.0" text-anchor="end" fill="#666">0%</text><line x1="60" y1="270" x2="550" y2="270" class="ax"/><line x1="60" y1="50" x2="60" y2="270" class="ax"/><rect x="90" y="185.3846153846154" width="28" height="84.61538461538461" class="bar-sem"/><rect x="124" y="92.30769230769229" width="28" height="177.6923076923077" class="bar-com"/><text x="104.0" y="181.3846153846154" text-anchor="middle" fill="#444" font-size="10">38</text><text x="138.0" y="88.30769230769229" text-anchor="middle" fill="#2962ff" font-size="10">81</text><text x="121" y="284" transform="rotate(-25 121 284)" text-anchor="end" class="lbl">angular</text><rect x="160" y="226.0" width="28" height="44.0" class="bar-sem"/><rect x="194" y="138.0" width="28" height="132.0" class="bar-com"/><text x="174.0" y="222.0" text-anchor="middle" fill="#444" font-size="10">20</text><text x="208.0" y="134.0" text-anchor="middle" fill="#2962ff" font-size="10">60</text><text x="191" y="284" transform="rotate(-25 191 284)" text-anchor="end" class="lbl">dotnet</text><rect x="230" y="187.5" width="28" height="82.5" class="bar-sem"/><rect x="264" y="50.0" width="28" height="220.0" class="bar-com"/><text x="244.0" y="183.5" text-anchor="middle" fill="#444" font-size="10">38</text><text x="278.0" y="46.0" text-anchor="middle" fill="#2962ff" font-size="10">100</text><text x="261" y="284" transform="rotate(-25 261 284)" text-anchor="end" class="lbl">react</text><rect x="340" y="32" width="14" height="10" class="bar-sem"/><text x="360" y="42">without simplicio</text><rect x="460" y="32" width="14" height="10" class="bar-com"/><text x="480" y="42">with simplicio</text></svg>