<svg xmlns="http://www.w3.org/2000/svg" viewBox="0 0 560 320" font-family="-apple-system,Segoe UI,Roboto,sans-serif" font-size="12"><style>.bar-pos{fill:#2e7d32}.bar-neg{fill:#c62828}.ax{stroke:#444;stroke-width:1.2}.grid{stroke:#eee;stroke-width:1}</style><text x="280.0" y="22" text-anchor="middle" font-weight="600" font-size="14">Gain from simplicio (points) — by model</text><line x1="60" y1="50.0" x2="550" y2="50.0" class="grid"/><text x="54" y="54.0" text-anchor="end" fill="#666">+60 pts</text><line x1="60" y1="97.5" x2="550" y2="97.5" class="grid"/><text x="54" y="101.5" text-anchor="end" fill="#666">+30 pts</text><line x1="60" y1="145.0" x2="550" y2="145.0" class="grid"/><text x="54" y="149.0" text-anchor="end" fill="#666">+0 pts</text><line x1="60" y1="192.5" x2="550" y2="192.5" class="grid"/><text x="54" y="196.5" text-anchor="end" fill="#666">-30 pts</text><line x1="60" y1="240.0" x2="550" y2="240.0" class="grid"/><text x="54" y="244.0" text-anchor="end" fill="#666">-60 pts</text><line x1="60" y1="145.0" x2="550" y2="145.0" class="ax"/><rect x="90" y="86.41666666666666" width="36" height="58.583333333333336" class="bar-pos"/><text x="108.0" y="80.41666666666666" text-anchor="middle" fill="#222">+37</text><text x="108.0" y="256" transform="rotate(-25 108.0 256)" text-anchor="end" fill="#222">llama-3.2-3b-instruct</text><rect x="144" y="65.83333333333333" width="36" height="79.16666666666667" class="bar-pos"/><text x="162.0" y="59.83333333333333" text-anchor="middle" fill="#222">+50</text><text x="162.0" y="256" transform="rotate(-25 162.0 256)" text-anchor="end" fill="#222">gemma-3-4b-it</text><rect x="198" y="129.16666666666666" width="36" height="15.833333333333332" class="bar-pos"/><text x="216.0" y="123.16666666666666" text-anchor="middle" fill="#222">+10</text><text x="216.0" y="256" transform="rotate(-25 216.0 256)" text-anchor="end" fill="#222">qwen-2.5-coder-32b-instruct</text></svg>