<svg xmlns="http://www.w3.org/2000/svg" viewBox="0 0 560 320" font-family="-apple-system,Segoe UI,Roboto,sans-serif" font-size="12"><style>.bar-pos{fill:#2e7d32}.bar-neg{fill:#c62828}.ax{stroke:#444;stroke-width:1.2}.grid{stroke:#eee;stroke-width:1}</style><text x="280.0" y="22" text-anchor="middle" font-weight="600" font-size="14">Gain from simplicio (points) — by model</text><line x1="60" y1="50.0" x2="550" y2="50.0" class="grid"/><text x="54" y="54.0" text-anchor="end" fill="#666">+74 pts</text><line x1="60" y1="97.5" x2="550" y2="97.5" class="grid"/><text x="54" y="101.5" text-anchor="end" fill="#666">+37 pts</text><line x1="60" y1="145.0" x2="550" y2="145.0" class="grid"/><text x="54" y="149.0" text-anchor="end" fill="#666">+0 pts</text><line x1="60" y1="192.5" x2="550" y2="192.5" class="grid"/><text x="54" y="196.5" text-anchor="end" fill="#666">-37 pts</text><line x1="60" y1="240.0" x2="550" y2="240.0" class="grid"/><text x="54" y="244.0" text-anchor="end" fill="#666">-74 pts</text><line x1="60" y1="145.0" x2="550" y2="145.0" class="ax"/><rect x="90" y="91.08108108108108" width="36" height="53.91891891891892" class="bar-pos"/><text x="108.0" y="85.08108108108108" text-anchor="middle" fill="#222">+42</text><text x="108.0" y="256" transform="rotate(-25 108.0 256)" text-anchor="end" fill="#222">qwen-2.5-7b-instruct</text><rect x="144" y="62.83783783783784" width="36" height="82.16216216216216" class="bar-pos"/><text x="162.0" y="56.83783783783784" text-anchor="middle" fill="#222">+64</text><text x="162.0" y="256" transform="rotate(-25 162.0 256)" text-anchor="end" fill="#222">llama-3.1-8b-instruct</text><rect x="198" y="73.1081081081081" width="36" height="71.8918918918919" class="bar-pos"/><text x="216.0" y="67.1081081081081" text-anchor="middle" fill="#222">+56</text><text x="216.0" y="256" transform="rotate(-25 216.0 256)" text-anchor="end" fill="#222">gemma-3-12b-it</text></svg>