<svg xmlns="http://www.w3.org/2000/svg" viewBox="0 0 560 320" font-family="-apple-system,Segoe UI,Roboto,sans-serif" font-size="12"><style>.bar-pos{fill:#2e7d32}.bar-neg{fill:#c62828}.ax{stroke:#444;stroke-width:1.2}.grid{stroke:#eee;stroke-width:1}</style><text x="280.0" y="22" text-anchor="middle" font-weight="600" font-size="14">Gain from simplicio (points) — by model</text><line x1="60" y1="50.0" x2="550" y2="50.0" class="grid"/><text x="54" y="54.0" text-anchor="end" fill="#666">+72 pts</text><line x1="60" y1="97.5" x2="550" y2="97.5" class="grid"/><text x="54" y="101.5" text-anchor="end" fill="#666">+36 pts</text><line x1="60" y1="145.0" x2="550" y2="145.0" class="grid"/><text x="54" y="149.0" text-anchor="end" fill="#666">+0 pts</text><line x1="60" y1="192.5" x2="550" y2="192.5" class="grid"/><text x="54" y="196.5" text-anchor="end" fill="#666">-36 pts</text><line x1="60" y1="240.0" x2="550" y2="240.0" class="grid"/><text x="54" y="244.0" text-anchor="end" fill="#666">-72 pts</text><line x1="60" y1="145.0" x2="550" y2="145.0" class="ax"/><rect x="90" y="76.38888888888889" width="36" height="68.61111111111111" class="bar-pos"/><text x="108.0" y="70.38888888888889" text-anchor="middle" fill="#222">+52</text><text x="108.0" y="256" transform="rotate(-25 108.0 256)" text-anchor="end" fill="#222">deepseek-v4-pro</text><rect x="144" y="71.11111111111111" width="36" height="73.88888888888889" class="bar-pos"/><text x="162.0" y="65.11111111111111" text-anchor="middle" fill="#222">+56</text><text x="162.0" y="256" transform="rotate(-25 162.0 256)" text-anchor="end" fill="#222">qwen3.7-max</text><rect x="198" y="65.83333333333333" width="36" height="79.16666666666667" class="bar-pos"/><text x="216.0" y="59.83333333333333" text-anchor="middle" fill="#222">+60</text><text x="216.0" y="256" transform="rotate(-25 216.0 256)" text-anchor="end" fill="#222">kimi-k2.6</text><rect x="252" y="63.19444444444444" width="36" height="81.80555555555556" class="bar-pos"/><text x="270.0" y="57.19444444444444" text-anchor="middle" fill="#222">+62</text><text x="270.0" y="256" transform="rotate(-25 270.0 256)" text-anchor="end" fill="#222">gpt-5.5</text><rect x="306" y="71.11111111111111" width="36" height="73.88888888888889" class="bar-pos"/><text x="324.0" y="65.11111111111111" text-anchor="middle" fill="#222">+56</text><text x="324.0" y="256" transform="rotate(-25 324.0 256)" text-anchor="end" fill="#222">claude-opus-4.7</text><rect x="360" y="68.47222222222221" width="36" height="76.52777777777779" class="bar-pos"/><text x="378.0" y="62.472222222222214" text-anchor="middle" fill="#222">+58</text><text x="378.0" y="256" transform="rotate(-25 378.0 256)" text-anchor="end" fill="#222">gemini-3.5-flash</text></svg>