<svg xmlns="http://www.w3.org/2000/svg" viewBox="0 0 560 320" font-family="-apple-system,Segoe UI,Roboto,sans-serif" font-size="12"><style>.bar-pos{fill:#2e7d32}.bar-neg{fill:#c62828}.ax{stroke:#444;stroke-width:1.2}.grid{stroke:#eee;stroke-width:1}</style><text x="280.0" y="22" text-anchor="middle" font-weight="600" font-size="14">Gain from simplicio (points) — by model</text><line x1="60" y1="50.0" x2="550" y2="50.0" class="grid"/><text x="54" y="54.0" text-anchor="end" fill="#666">+74 pts</text><line x1="60" y1="97.5" x2="550" y2="97.5" class="grid"/><text x="54" y="101.5" text-anchor="end" fill="#666">+37 pts</text><line x1="60" y1="145.0" x2="550" y2="145.0" class="grid"/><text x="54" y="149.0" text-anchor="end" fill="#666">+0 pts</text><line x1="60" y1="192.5" x2="550" y2="192.5" class="grid"/><text x="54" y="196.5" text-anchor="end" fill="#666">-37 pts</text><line x1="60" y1="240.0" x2="550" y2="240.0" class="grid"/><text x="54" y="244.0" text-anchor="end" fill="#666">-74 pts</text><line x1="60" y1="145.0" x2="550" y2="145.0" class="ax"/><rect x="90" y="83.37837837837837" width="36" height="61.62162162162163" class="bar-pos"/><text x="108.0" y="77.37837837837837" text-anchor="middle" fill="#222">+48</text><text x="108.0" y="256" transform="rotate(-25 108.0 256)" text-anchor="end" fill="#222">deepseek-v4-pro</text><rect x="144" y="80.8108108108108" width="36" height="64.1891891891892" class="bar-pos"/><text x="162.0" y="74.8108108108108" text-anchor="middle" fill="#222">+50</text><text x="162.0" y="256" transform="rotate(-25 162.0 256)" text-anchor="end" fill="#222">qwen3.7-max</text><rect x="198" y="62.83783783783784" width="36" height="82.16216216216216" class="bar-pos"/><text x="216.0" y="56.83783783783784" text-anchor="middle" fill="#222">+64</text><text x="216.0" y="256" transform="rotate(-25 216.0 256)" text-anchor="end" fill="#222">kimi-k2.6</text><rect x="252" y="65.4054054054054" width="36" height="79.5945945945946" class="bar-pos"/><text x="270.0" y="59.4054054054054" text-anchor="middle" fill="#222">+62</text><text x="270.0" y="256" transform="rotate(-25 270.0 256)" text-anchor="end" fill="#222">gpt-5.5</text><rect x="306" y="78.24324324324324" width="36" height="66.75675675675676" class="bar-pos"/><text x="324.0" y="72.24324324324324" text-anchor="middle" fill="#222">+52</text><text x="324.0" y="256" transform="rotate(-25 324.0 256)" text-anchor="end" fill="#222">claude-opus-4.7</text><rect x="360" y="67.97297297297297" width="36" height="77.02702702702703" class="bar-pos"/><text x="378.0" y="61.97297297297297" text-anchor="middle" fill="#222">+60</text><text x="378.0" y="256" transform="rotate(-25 378.0 256)" text-anchor="end" fill="#222">gemini-3.5-flash</text></svg>