<svg xmlns="http://www.w3.org/2000/svg" viewBox="0 0 560 360" font-family="-apple-system,Segoe UI,Roboto,sans-serif" font-size="12"><style>.bar-sem{fill:#aaa}.bar-com{fill:#2962ff}.lbl{fill:#222}.ax{stroke:#888;stroke-width:1}.grid{stroke:#eee;stroke-width:1}</style><text x="280.0" y="22" text-anchor="middle" font-weight="600" font-size="14">Pass rate by model — without vs with simplicio</text><line x1="60" y1="50.0" x2="550" y2="50.0" class="grid"/><text x="54" y="54.0" text-anchor="end" fill="#666">100%</text><line x1="60" y1="105.0" x2="550" y2="105.0" class="grid"/><text x="54" y="109.0" text-anchor="end" fill="#666">75%</text><line x1="60" y1="160.0" x2="550" y2="160.0" class="grid"/><text x="54" y="164.0" text-anchor="end" fill="#666">50%</text><line x1="60" y1="215.0" x2="550" y2="215.0" class="grid"/><text x="54" y="219.0" text-anchor="end" fill="#666">25%</text><line x1="60" y1="270.0" x2="550" y2="270.0" class="grid"/><text x="54" y="274.0" text-anchor="end" fill="#666">0%</text><line x1="60" y1="270" x2="550" y2="270" class="ax"/><line x1="60" y1="50" x2="60" y2="270" class="ax"/><rect x="90" y="190.8" width="28" height="79.2" class="bar-sem"/><rect x="124" y="67.6" width="28" height="202.4" class="bar-com"/><text x="104.0" y="186.8" text-anchor="middle" fill="#444" font-size="10">36</text><text x="138.0" y="63.599999999999994" text-anchor="middle" fill="#2962ff" font-size="10">92</text><text x="121" y="284" transform="rotate(-25 121 284)" text-anchor="end" class="lbl">qwen2.5-coder:7b</text><rect x="340" y="32" width="14" height="10" class="bar-sem"/><text x="360" y="42">without simplicio</text><rect x="460" y="32" width="14" height="10" class="bar-com"/><text x="480" y="42">with simplicio</text></svg>